<?xml version="1.0" standalone="no"?>
<!DOCTYPE svg PUBLIC "-//W3C//DTD SVG 20010904//EN"
 "http://www.w3.org/TR/2001/REC-SVG-20010904/DTD/svg10.dtd">
<svg version="1.0" xmlns="http://www.w3.org/2000/svg"
 width="1024.000000pt" height="1536.000000pt" viewBox="0 0 1024.000000 1536.000000"
 preserveAspectRatio="xMidYMid meet">

<g transform="translate(0.000000,1536.000000) scale(0.100000,-0.100000)"
fill="#000000" stroke="none">
<path d="M1850 10800 c-93 -6 -132 -21 -173 -69 -55 -66 -52 120 -52 -2961 l0
-2855 21 -40 c27 -54 92 -88 151 -81 22 3 126 42 230 87 103 45 247 106 318
136 72 30 195 83 275 118 497 216 1150 483 1600 655 940 358 1800 613 3502
1040 394 99 728 184 741 189 l25 10 -5 1818 -4 1818 -24 42 c-24 40 -57 69
-100 89 -21 9 -6348 13 -6505 4z m1476 -893 c197 -66 333 -212 384 -413 18
-69 20 -111 20 -390 0 -190 -4 -334 -11 -366 -28 -134 -126 -267 -242 -329
l-63 -34 183 -555 c101 -305 183 -558 183 -562 0 -5 -110 -8 -246 -8 l-245 0
-13 33 c-7 17 -92 265 -187 549 l-174 518 -72 0 -73 0 0 -550 0 -550 -250 0
-250 0 0 1346 0 1345 488 -3 487 -3 81 -28z m1423 -54 c11 -49 54 -232 96
-408 42 -176 105 -448 140 -604 36 -156 67 -286 68 -288 5 -4 51 189 288 1222
17 72 32 138 35 148 5 16 30 17 350 17 l344 0 -2 -1342 -3 -1343 -222 -3 -223
-2 -1 922 0 923 -64 -270 c-36 -148 -94 -396 -131 -550 -36 -154 -83 -352
-104 -440 -92 -381 -130 -541 -135 -562 -5 -22 -9 -23 -123 -23 l-118 0 -63
258 c-116 473 -321 1316 -348 1432 -15 63 -29 118 -32 122 -3 4 -6 -401 -6
-900 l0 -907 -217 -3 -218 -2 0 1345 0 1345 334 0 334 0 21 -87z m2706 65 c7
-30 111 -515 169 -788 25 -118 93 -442 151 -720 58 -278 137 -648 175 -822 39
-175 70 -322 70 -328 0 -16 -487 -13 -492 3 -3 6 -27 123 -54 259 l-48 247
-288 3 -288 3 -14 -65 c-8 -36 -31 -154 -52 -262 l-38 -198 -233 0 -233 0 5
23 c3 12 32 155 65 317 32 162 145 720 250 1240 105 520 198 982 207 1028 l17
82 313 0 313 0 5 -22z"/>
<path d="M2770 9116 l0 -416 133 0 c157 0 214 14 275 66 65 55 92 119 105 241
14 133 -1 290 -33 354 -28 56 -84 115 -135 142 -35 19 -60 22 -192 25 l-153 4
0 -416z"/>
<path d="M7036 8748 c-55 -271 -101 -503 -104 -515 l-4 -23 211 0 c117 0 210
3 207 8 -2 4 -48 221 -101 482 -53 261 -99 490 -103 508 -6 26 -29 -74 -106
-460z"/>
<path d="M8410 6810 c-14 -5 -106 -34 -205 -65 -349 -110 -1061 -367 -1520
-548 -1300 -513 -2270 -993 -3523 -1744 -273 -164 -314 -191 -306 -205 9 -14
135 -72 639 -293 755 -331 739 -324 785 -307 14 5 102 74 195 152 1241 1040
2652 2009 3732 2565 93 47 159 88 169 103 16 25 114 315 114 339 0 15 -41 16
-80 3z"/>
</g>
</svg>
